# xmcd CD database file
#
# Track frame offsets:
#	150
#	15325
#	27838
#	38075
#	48500
#	56075
#	64438
#	76525
#	85725
#	94225
#	103425
#	113913
#
# Disc length: 1670 seconds
#
# Revision: 1
# Processed by: cddbd v1.4PL0 Copyright (c) Steve Scherf et al.
# Submitted via: CDex 1.50Beta7
#
DISCID=9406840c
DTITLE=Various Artist - Small Screen Cowboy Heroes
DYEAR=1900
DGENRE=Country
TTITLE0=New Philharmonia Orchestra/The Lone Ranger Theme
TTITLE1=Gene Autry/Back In The Saddle Again
TTITLE2=Roy Rogers/Happy Trails
TTITLE3=Gail Davis/I'm A Female Thru And Thru
TTITLE4=Fess Parker/Ballad Of Davy Crockett
TTITLE5=Johnny Western/The Ballad Of Paladin
TTITLE6=Hugh O'Brian/Legend Of Wyatt Earp
TTITLE7=The Chordettes/Zorro
TTITLE8=Johnny Cash/The Rebel Johnny Yuma
TTITLE9=Frankie Laine/Rawhide (TV Theme)
TTITLE10=Johnny Cash/Bonanza
TTITLE11=Robert Horton/Shenandoah
EXTD=
EXTT0=
EXTT1=
EXTT2=
EXTT3=
EXTT4=
EXTT5=
EXTT6=
EXTT7=
EXTT8=
EXTT9=
EXTT10=
EXTT11=
PLAYORDER=
